<?xml version="1.0" encoding="UTF-8"?>
<svg xmlns="http://www.w3.org/2000/svg" width="128" height="128" viewBox="0 0 24 24" fill="none" stroke="#ffffff" stroke-width="1.5" stroke-linecap="round" stroke-linejoin="round">
  <!-- Background gradient circle -->
  <defs>
    <linearGradient id="grad" x1="0%" y1="0%" x2="100%" y2="100%">
      <stop offset="0%" style="stop-color:#667eea;stop-opacity:1" />
      <stop offset="100%" style="stop-color:#764ba2;stop-opacity:1" />
    </linearGradient>
  </defs>
  
  <!-- Main circle -->
  <circle cx="12" cy="12" r="10" fill="url(#grad)" stroke="#ffffff" stroke-width="0.5"/>
  
  <!-- Network/proxy icon elements -->
  <path d="M8 9C9.10457 9 10 8.10457 10 7C10 5.89543 9.10457 5 8 5C6.89543 5 6 5.89543 6 7C6 8.10457 6.89543 9 8 9Z" fill="white"/>
  <path d="M16 19C17.1046 19 18 18.1046 18 17C18 15.8954 17.1046 15 16 15C14.8954 15 14 15.8954 14 17C14 18.1046 14.8954 19 16 19Z" fill="white"/>
  <path d="M16 9C17.1046 9 18 8.10457 18 7C18 5.89543 17.1046 5 16 5C14.8954 5 14 5.89543 14 7C14 8.10457 14.8954 9 16 9Z" fill="white"/>
  <path d="M8 19C9.10457 19 10 18.1046 10 17C10 15.8954 9.10457 15 8 15C6.89543 15 6 15.8954 6 17C6 18.1046 6.89543 19 8 19Z" fill="white"/>
  
  <!-- Connection lines -->
  <path d="M8 9L16 15" stroke="white" stroke-width="1.5"/>
  <path d="M16 9L8 15" stroke="white" stroke-width="1.5"/>
  <path d="M12 7H12.01" stroke="white" stroke-width="3" stroke-linecap="round"/>
  <path d="M12 17H12.01" stroke="white" stroke-width="3" stroke-linecap="round"/>
</svg>
